<svg xmlns="http://www.w3.org/2000/svg" width="64" height="64" viewBox="0 0 64 64"><title>attention-circle</title><path fill="#ffa53b" d="M32 17.446h-.009a2.446 2.446 0 0 0-2.446 2.441v14.08l-.001.076a2.456 2.456 0 1 0 4.912 0l-.001-.08v.004-14.08a2.447 2.447 0 0 0-2.446-2.442h-.008zm0 22.163a2.469 2.469 0 0 0-2.456 2.465v1.47l-.001.076a2.456 2.456 0 1 0 4.912 0l-.001-.08v.004-1.47a2.466 2.466 0 0 0-2.453-2.465H32z"/><path fill="none" stroke="#ffa53b" stroke-width="4.741" d="M61.63 32c0 16.364-13.266 29.63-29.63 29.63S2.37 48.364 2.37 32C2.37 15.636 15.636 2.37 32 2.37S61.63 15.636 61.63 32z"/></svg>