<svg xmlns="http://www.w3.org/2000/svg" width="97" height="64" viewBox="0 0 97 64"><title>expand</title><path fill="#ffa53b" d="M93.374 19.511L56.067 60.57a10.004 10.004 0 0 1-7.504 3.378 10 10 0 0 1-7.495-3.368l-.009-.01c-1.899-2.185-3.056-5.058-3.056-8.201s1.157-6.016 3.069-8.216l-.013.015L78.473 3.109c1.801-2.121 4.47-3.458 7.451-3.458s5.65 1.337 7.439 3.444l.012.014c1.945 2.166 3.134 5.045 3.134 8.201s-1.189 6.035-3.144 8.212l.01-.011z"/><path fill="#ffa53b" d="M3.109 19.511L40.416 60.57c1.845 2.077 4.523 3.378 7.504 3.378s5.659-1.302 7.495-3.368l.009-.01c1.899-2.185 3.056-5.058 3.056-8.201s-1.157-6.016-3.069-8.216l.013.015L18.01 3.109C16.209.988 13.54-.349 10.559-.349S4.909.988 3.12 3.095l-.012.014C1.163 5.275-.026 8.154-.026 11.31s1.189 6.035 3.144 8.212l-.01-.011z"/></svg>