<svg xmlns="http://www.w3.org/2000/svg" width="117" height="64" viewBox="0 0 117 64"><title>icon-transfer</title><path fill="none" stroke="#ffa53b" stroke-width="3.765" d="M1.882 1.882h112.941v60.235H1.882V1.882z"/><path fill="#ffa53b" d="M11.294 9.412a1.882 1.882 0 1 1 0 3.764 1.882 1.882 0 0 1 0-3.764zm0 41.412a1.882 1.882 0 1 1 0 3.764 1.882 1.882 0 0 1 0-3.764zm30.118 0h3.765a1.882 1.882 0 1 1 0 3.764h-3.765a1.882 1.882 0 1 1 0-3.764zm11.294 0H64a1.882 1.882 0 1 1 0 3.764H52.706a1.882 1.882 0 1 1 0-3.764zM41.412 35.765h37.647a1.882 1.882 0 1 1 0 3.764H41.412a1.882 1.882 0 1 1 0-3.764zm0-7.53h58.353a1.882 1.882 0 1 1 0 3.764H41.412a1.882 1.882 0 1 1 0-3.764zm0-7.529h58.353a1.882 1.882 0 1 1 0 3.764H41.412a1.882 1.882 0 1 1 0-3.764zm0-11.294h15.059a1.882 1.882 0 1 1 0 3.764H41.412a1.882 1.882 0 1 1 0-3.764z"/><path fill="#ffa53b" stroke="#ffa53b" stroke-width="1.882" d="M22.009 32.377h-1.338v2.692h5.252v2.918h-5.252v3.407h-3.917v-3.407h-1.673v-2.918h1.673v-2.692h-1.673v-2.918h1.673V19.257a43.483 43.483 0 0 1 6.188-.433h.001c5.184 0 7.153 3.049 7.153 6.268.009 3.256-1.529 7.285-8.087 7.285zm.376-10.56l-.132-.001c-.557 0-1.101.055-1.628.16l.053-.009v7.492h1.205a3.465 3.465 0 0 0 4.011-4.03l.003.021a3.2 3.2 0 0 0-3.535-3.631l.015-.001z"/></svg>