<svg xmlns="http://www.w3.org/2000/svg" width="57" height="64" viewBox="0 0 57 64"><title>Icon-clip</title><path d="M5.447 1.362h46.298a4.085 4.085 0 0 1 4.085 4.085v53.106a4.085 4.085 0 0 1-4.085 4.085H5.447a4.085 4.085 0 0 1-4.085-4.085V5.447a4.085 4.085 0 0 1 4.085-4.085z" fill="none!important"/><path d="M19.064 8.17h19.064v2.723H19.064V8.17zm-4.085 17.702V24.51h27.234v1.362H14.979zm0 5.447v-1.362h27.234v1.362H14.979zm0 5.447v-1.362h27.234v1.362H14.979zm0 5.447v-1.362h27.234v1.362H14.979zm0 5.447v-1.362h14.979v1.362H14.979z" stroke="none!important"/></svg>