<svg xmlns="http://www.w3.org/2000/svg" width="50" height="64" viewBox="0 0 50 64"><title>Icon-pdf</title><path fill="#fff" d="M49.495 19.017a9.585 9.585 0 0 0-1.896-3.209l.008.009L35.356 2.834A9.06 9.06 0 0 0 32.43.845l-.059-.022A8.576 8.576 0 0 0 28.928 0H3.772l-.077-.001c-1.026 0-1.948.44-2.59 1.141l-.002.003A3.983 3.983 0 0 0 .001 3.982v-.004 56.046L0 60.101c0 1.055.421 2.012 1.103 2.712l-.001-.001a3.396 3.396 0 0 0 2.584 1.19l.09-.001h-.004 42.734l.084.001a3.396 3.396 0 0 0 2.582-1.185l.004-.004a3.887 3.887 0 0 0 1.098-2.712l-.001-.08v.004-37.349a9.928 9.928 0 0 0-.802-3.722l.025.065zM30.171 5.669a4.39 4.39 0 0 1 1.613.918l-.004-.004 12.293 13.029c.395.487.693 1.069.857 1.706l.007.031H30.171V5.669zm15.086 52.982H5.028V5.348h20.114v17.326l-.001.078c0 1.069.418 2.04 1.1 2.758l-.002-.002a3.513 3.513 0 0 0 2.597 1.144l.081-.001h-.004 16.343v32z"/></svg>