<svg xmlns="http://www.w3.org/2000/svg" width="57" height="64" viewBox="0 0 57 64"><title>Icon-wireo</title><path d="M5.447 2.723h46.298a4.085 4.085 0 0 1 4.085 4.085v51.745a4.085 4.085 0 0 1-4.085 4.085H5.447a4.085 4.085 0 0 1-4.085-4.085V6.808a4.085 4.085 0 0 1 4.085-4.085z" fill="none!important"/><path d="M2.723 12.255h53.106v2.723H2.723v-2.723zM6.809 0h2.723v6.809H6.809V0zm5.446 0h2.723v6.809h-2.723V0zm5.447 0h2.723v6.809h-2.723V0zm19.064 0h2.723v6.809h-2.723V0zm5.447 0h2.723v6.809h-2.723V0zm5.447 0h2.723v6.809H47.66V0zM14.979 27.234v-1.362h27.234v1.362H14.979zm0 5.447v-1.362h27.234v1.362H14.979zm0 5.447v-1.362h27.234v1.362H14.979zm0 5.446v-1.362h27.234v1.362H14.979zm0 5.447v-1.362h14.979v1.362H14.979z" stroke="none!important"/></svg>