<svg xmlns="http://www.w3.org/2000/svg" width="57" height="64" viewBox="0 0 57 64"><title>Icon-rip</title><path d="M5.447 1.362h46.298a4.085 4.085 0 0 1 4.085 4.085v53.106a4.085 4.085 0 0 1-4.085 4.085H5.447a4.085 4.085 0 0 1-4.085-4.085V5.447a4.085 4.085 0 0 1 4.085-4.085z" fill="none!important"/><path d="M2.723 2.723h53.106v6.808H2.723V2.722zm12.256 20.426v-1.362h27.234v1.362H14.979zm0 5.447v-1.362h27.234v1.362H14.979zm0 5.447v-1.362h27.234v1.362H14.979zm0 5.446v-1.362h27.234v1.362H14.979zm0 5.447v-1.362h14.979v1.362H14.979z" stroke="none!important"/><path fill="#fff" d="M5.978 1.362h32.15L32.804 39.23a4.923 4.923 0 0 1-3.465 3.993l-.035.009L1.362 47.66V7.081c0-3.124 2.083-5.719 4.616-5.719z"/><path d="M38.128 4.085c-8.3 3.69-15.184 9.264-20.329 16.204l-.096.136C12.259 27.869 7.659 36.421 4.316 45.579l-.229.719" fill="none!important"/></svg>