<svg xmlns="http://www.w3.org/2000/svg" width="82" height="64" viewBox="0 0 82 64"><title>Icon-cards</title><path fill="#ffa53b" d="M10.24 46.08v-2.56H5.12a2.56 2.56 0 0 1-2.56-2.56V5.12a2.56 2.56 0 0 1 2.56-2.56H64a2.56 2.56 0 0 1 2.56 2.56v10.24h2.56V5.12A5.12 5.12 0 0 0 64 0H5.12A5.12 5.12 0 0 0 0 5.12v35.84a5.12 5.12 0 0 0 5.12 5.12h5.12zM76.8 64H17.92a5.12 5.12 0 0 1-5.12-5.12V23.04a5.12 5.12 0 0 1 5.12-5.12H76.8a5.12 5.12 0 0 1 5.12 5.12v35.84A5.12 5.12 0 0 1 76.8 64zM17.92 20.48a2.56 2.56 0 0 0-2.56 2.56v35.84a2.56 2.56 0 0 0 2.56 2.56H76.8a2.56 2.56 0 0 0 2.56-2.56V23.04a2.56 2.56 0 0 0-2.56-2.56H17.92zM40.96 51.2h-.002.036c2.852 0 5.43-1.176 7.277-3.072l-1.828-1.792-.001.001a7.68 7.68 0 0 1-13.163-5.377 7.68 7.68 0 0 1 13.165-5.376l1.828-1.792-.002-.002a10.206 10.206 0 0 0-7.311-3.07c-5.655 0-10.24 4.585-10.24 10.24s4.585 10.24 10.24 10.24h.001zm12.8 0c-5.655 0-10.24-4.585-10.24-10.24s4.585-10.24 10.24-10.24S64 35.305 64 40.96c-.007 5.652-4.588 10.233-10.239 10.24h-.001zm0-17.92c-4.242 0-7.68 3.438-7.68 7.68s3.438 7.68 7.68 7.68a7.68 7.68 0 0 0 7.68-7.68 7.687 7.687 0 0 0-7.68-7.68zm12.8-25.6h-64V5.12h64v2.56zm-56.32 12.8H2.56v-2.56h7.68v2.56zm0 10.24H5.12v-2.56h5.12v2.56zM25.6 42.24h-2.56v-2.56h2.56v2.56zm46.08 0h-2.56v-2.56h2.56v2.56zM61.44 12.8h-12.8v-2.56h12.8v2.56zm-15.36 0h-5.12v-2.56h5.12v2.56z"/></svg>