<svg xmlns="http://www.w3.org/2000/svg" width="52" height="64" viewBox="0 0 52 64"><title>icon-lock</title><path fill="#afb0b3" d="M38.091 23.154h-.807v-6.922C37.125 7.233 29.792-.002 20.77-.002L20.516 0h.013a15.79 15.79 0 0 0-.508-.008c-8.702 0-15.808 6.832-16.247 15.425l-.002.039v7.707h3.07v-7.455c.521-7.142 6.444-12.74 13.674-12.74 7.419 0 13.461 5.893 13.701 13.254l.001.022v6.922H2.923a2.923 2.923 0 0 0-2.922 2.857v18.503c.086 4.773 3.976 8.608 8.761 8.608l.131-.001h-.007H32.17l.125.001a8.764 8.764 0 0 0 8.763-8.6V26.026a2.923 2.923 0 0 0-2.922-2.872h-.046.002zm-.102 21.371a5.735 5.735 0 0 1-5.733 5.635l-.092-.001h.005H8.897l-.088.001a5.731 5.731 0 0 1-5.73-5.63V26.124h34.91v18.401zm-17.456-.604a5.555 5.555 0 1 0-5.739-5.556 5.657 5.657 0 0 0 5.655 5.555l.082-.001h-.004zm0-8.156a2.591 2.591 0 1 1-2.656 2.597 2.632 2.632 0 0 1 2.632-2.596h.021-.001z"/><path fill="#2ebc67" stroke="#fff" stroke-width="2.415" d="M50.717 49.509c0 7.336-5.947 13.283-13.283 13.283s-13.283-5.947-13.283-13.283c0-7.336 5.947-13.283 13.283-13.283s13.283 5.947 13.283 13.283z"/><path fill="#fff" d="M33.811 49.889l1.671-1.657 3.297 3.239-1.671 1.657z"/><path fill="#fff" d="M42.846 47.546l-1.674-1.659-5.661 5.579 1.681 1.666z"/></svg>