<svg xmlns="http://www.w3.org/2000/svg" width="60" height="64" viewBox="0 0 60 64"><title>Icon-pen</title><path d="M5.447 2.723h46.298a4.085 4.085 0 0 1 4.085 4.085v51.745a4.085 4.085 0 0 1-4.085 4.085H5.447a4.085 4.085 0 0 1-4.085-4.085V6.808a4.085 4.085 0 0 1 4.085-4.085z" fill="none!important"/><path d="M2.723 12.255h53.106v2.723H2.723v-2.723zM6.809 0h2.723v6.809H6.809V0zm5.446 0h2.723v6.809h-2.723V0zm5.447 0h2.723v6.809h-2.723V0zm19.064 0h2.723v6.809h-2.723V0zm5.447 0h2.723v6.809h-2.723V0zm5.447 0h2.723v6.809H47.66V0zM14.979 27.234v-1.362h27.234v1.362H14.979zm0 5.447v-1.362h27.234v1.362H14.979zm0 5.447v-1.362h27.234v1.362H14.979zm0 5.446v-1.362h27.234v1.362H14.979zm0 5.447v-1.362h14.979v1.362H14.979z" stroke="none!important"/><path fill="#ffa53b" d="M44.936 0h14.979v64H44.936V0z" stroke="none!important"/><path d="M55.83 41.332h-2.723v-2.587h2.723v2.587zm-1.362 2.587zm1.362 5.166h-2.723v-2.587h2.723v2.587zm2.723-45.208h-1.362V1.29A1.332 1.332 0 0 0 55.86-.001h-2.785c-.721 0-1.309.573-1.331 1.289v2.589h-1.393c-.722 0-1.309.574-1.331 1.291v48.445c.001.213.057.413.153.588l-.003-.006 4.085 7.751a1.39 1.39 0 0 0 2.42.006l.004-.007 4.085-7.751c.093-.168.148-.368.15-.581V5.163a1.333 1.333 0 0 0-1.331-1.293h-.032.002zm-6.808 2.587h1.362v20.669h2.723V6.453h1.362v27.128h-5.447V6.453zm0 29.712h5.447v15.502h-5.447V36.165zm2.723 22.297l-2.22-4.212h4.439z" stroke="none!important"/></svg>