<svg xmlns="http://www.w3.org/2000/svg" width="43" height="64" viewBox="0 0 43 64"><title>Icon-upload</title><path fill="#ffa53b" d="M2.645 34.389l15.104-15.104a4.267 4.267 0 1 1 6.022 6.012l-.006.005L8.704 40.449a4.284 4.284 0 1 1-6.058-6.058z"/><path fill="#ffa53b" d="M39.765 34.389L24.661 19.285a4.267 4.267 0 1 0-6.022 6.012l.006.005 15.061 15.147a4.284 4.284 0 1 0 6.058-6.058z"/><path fill="#ffa53b" d="M25.557 57.899V27.35a4.543 4.543 0 1 0-8.523.032l-.01-.031V57.9a4.543 4.543 0 1 0 8.523-.031l.01.031zM4.267 0H38.4a4.267 4.267 0 0 1 0 8.534H4.267a4.267 4.267 0 0 1 0-8.534z"/></svg>