<svg xmlns="http://www.w3.org/2000/svg" width="64" height="64" viewBox="0 0 64 64"><title>Icon-settings</title><path fill="#fb951c" d="M35.986 64l-.241-2.406c-.18-1.927-1.789-3.424-3.748-3.424s-3.568 1.497-3.747 3.409l-.001.015L28.008 64l-2.378-.486c-4.404-.894-8.302-2.578-11.723-4.909l.11.071-1.664-1.126.975-1.766a3.702 3.702 0 0 0 .492-1.816v-.002a3.8 3.8 0 0 0-5.626-3.292l.02-.01-1.759.973-1.126-1.664c-2.268-3.305-3.96-7.197-4.828-11.39l-.036-.207-.479-2.381 2.414-.256a3.752 3.752 0 0 0 3.423-3.734v-.004a3.789 3.789 0 0 0-3.407-3.762l-.016-.001-2.414-.23.479-2.381c.899-4.4 2.591-8.293 4.934-11.704l-.07.108 1.126-1.664 1.759.973a3.81 3.81 0 0 0 5.607-3.299v-.003a3.728 3.728 0 0 0-.501-1.836l.01.018-.975-1.766 1.664-1.126C17.329 3.06 21.226 1.368 25.424.5l.207-.036 2.378-.461.241 2.406c.18 1.927 1.789 3.424 3.748 3.424s3.568-1.497 3.747-3.409l.001-.015.241-2.406 2.378.461c4.404.904 8.301 2.596 11.719 4.935l-.109-.071 1.661 1.126-.97 1.766a3.702 3.702 0 0 0-.492 1.816v.002a3.81 3.81 0 0 0 5.629 3.293l-.02.01 1.766-.973 1.126 1.664c2.263 3.305 3.946 7.198 4.803 11.392l.035.205.486 2.381-2.406.23a3.784 3.784 0 0 0-3.43 3.763v.013a3.738 3.738 0 0 0 3.417 3.724l.014.001 2.406.256-.486 2.381c-.897 4.398-2.581 8.29-4.91 11.707l.071-.111-1.126 1.664-1.766-.973a3.754 3.754 0 0 0-1.808-.457 3.8 3.8 0 0 0-3.801 3.757v.002c.007.67.188 1.295.501 1.836l-.01-.018.97 1.766-1.661 1.126c-3.31 2.261-7.207 3.944-11.404 4.803l-.206.035zm-3.989-10.24h.007a8.143 8.143 0 0 1 7.476 4.914l.02.053c2.486-.701 4.655-1.644 6.66-2.835l-.127.07a7.88 7.88 0 0 1-.256-1.996v-.001a8.208 8.208 0 0 1 8.191-8.192h.001c.714.01 1.4.103 2.058.269l-.061-.013a26.56 26.56 0 0 0 2.718-6.336l.047-.192c-2.943-1.273-4.965-4.151-4.965-7.501s2.022-6.228 4.912-7.48l.053-.02c-.703-2.494-1.646-4.67-2.836-6.683l.071.13a7.443 7.443 0 0 1-1.961.256h-.038.002a8.192 8.192 0 0 1-8.192-8.165v-.017c0-.704.093-1.386.269-2.035l-.013.055a26.924 26.924 0 0 0-6.338-2.742l-.195-.048c-1.273 2.944-4.152 4.967-7.503 4.967s-6.231-2.023-7.483-4.914l-.02-.053c-2.486.709-4.655 1.661-6.658 2.86l.125-.069c.163.594.256 1.277.256 1.981v.017-.001a8.193 8.193 0 0 1-8.192 8.166h-.053a7.432 7.432 0 0 1-1.986-.268l.052.012a27.212 27.212 0 0 0-2.729 6.357l-.048.197c2.943 1.273 4.965 4.151 4.965 7.501s-2.022 6.228-4.912 7.48l-.053.02c.702 2.483 1.649 4.651 2.846 6.652l-.069-.124a8.39 8.39 0 0 1 1.981-.256h.005a8.208 8.208 0 0 1 8.192 8.191v.001a8.075 8.075 0 0 1-.269 2.053l.013-.056a26.793 26.793 0 0 0 6.34 2.718l.193.047c1.269-2.943 4.146-4.966 7.495-4.966H32h-.001zm0-11.571h-.003c-5.627 0-10.189-4.562-10.189-10.189s4.562-10.189 10.189-10.189S42.183 26.373 42.183 32C42.174 37.622 37.621 42.177 32 42.189h-.001zm0-15.975a5.786 5.786 0 0 0 .008 11.572A5.785 5.785 0 0 0 37.791 32 5.79 5.79 0 0 0 32 26.214z"/></svg>