<svg xmlns="http://www.w3.org/2000/svg" width="64" height="64" viewBox="0 0 64 64"><title>Icon-print</title><path fill="#fff" d="M2.258 54.309h12.613v7.451a2.24 2.24 0 0 0 2.24 2.24h29.778a2.24 2.24 0 0 0 2.24-2.24v-7.451H61.76a2.24 2.24 0 0 0 2.24-2.24V11.932a2.24 2.24 0 0 0-2.24-2.24H49.129V2.241a2.24 2.24 0 0 0-2.24-2.24H17.111a2.24 2.24 0 0 0-2.24 2.24v7.451H2.24A2.24 2.24 0 0 0 0 11.932v40.137a2.286 2.286 0 0 0 2.257 2.24h.001zm42.355 5.165H19.388V40.868h25.225v18.606zM19.387 4.526h25.225v5.166H19.387V4.526zm-14.87 9.691h54.967v35.566H49.13v-8.914h4.018a2.285 2.285 0 1 0 .012-4.524l-.012-.002H10.903a2.285 2.285 0 1 0-.012 4.524l.012.002h4.023v8.914H4.517V14.217zM43.95 25.829h5.838a2.285 2.285 0 1 0 .012-4.524l-.012-.002H43.95a2.285 2.285 0 1 0-.012 4.524l.012.002z"/></svg>