<svg xmlns="http://www.w3.org/2000/svg" width="72" height="64" viewBox="0 0 72 64"><title>icon-cart</title><path fill="#ffa53b" d="M14.871 6.735h-.151c.188.161.34.358.447.58l.005.011zm47.698 39.277a8.943 8.943 0 0 0-8.843 7.863l-.004.043H33.468a9.089 9.089 0 0 0-4.437-6.704l-.043-.023 1.92-4.518h33.845c2.598-.429 4.555-2.658 4.555-5.345v-.048.002V11.23a2.26 2.26 0 0 0 .009-4.495l-.01-.001H14.869l.301.591a1.795 1.795 0 0 0-.449-.589l-.002-.002h.151L12.762 2.42C12.003.915 10.469-.1 8.698-.1c-.334 0-.66.036-.973.105L7.755 0H2.221a2.26 2.26 0 1 0-.01 4.487l.011.001H8.81l2.296 4.71.038.105c.026.04.051.075.077.108l-.002-.002-.001.014c0 .036.015.068.038.091l.264.655 12.311 28.857a6.633 6.633 0 0 0 2.495 2.864l.027.016-1.732 4.096h-.084a8.994 8.994 0 1 0 8.306 12.45l.022-.059h21.421c1.378 3.287 4.569 5.553 8.29 5.553 4.951 0 8.964-4.013 8.964-8.964s-4.013-8.964-8.964-8.964h-.008zM16.828 11.23h48v26.041c-.095.354-.25.664-.456.932l.005-.006H28.876a2.132 2.132 0 0 1-.936-.914l-.006-.012zm7.756 48.271h-.015a4.495 4.495 0 1 1 4.495-4.495v.015a4.484 4.484 0 0 1-4.48 4.484zm37.985 0h-.015a4.495 4.495 0 1 1 4.495-4.495v.023a4.476 4.476 0 0 1-4.476 4.476h-.004zm-51.35-50.07a1.193 1.193 0 0 1-.072-.101l-.003-.005.113.215a.128.128 0 0 1-.037-.129v.001zm.038.105c.052.248.143.467.268.663l-.005-.008zm3.614-2.79h-.151c.188.161.34.358.447.58l.005.011zm43.256 6.739a2.259 2.259 0 0 0-2.259 2.259v17.969a2.259 2.259 0 0 0 2.259 2.259 2.225 2.225 0 0 0 2.221-2.225v-.036.002-18.01a2.225 2.225 0 0 0-2.221-2.225zm-8.96 0a2.225 2.225 0 0 0-2.221 2.225v.036-.002 18.003c0 1.228.994 2.223 2.221 2.225a2.259 2.259 0 0 0 2.259-2.259V15.722a2.26 2.26 0 0 0-2.259-2.244zm-8.922 0a2.259 2.259 0 0 0-2.259 2.259v17.969a2.259 2.259 0 0 0 2.259 2.259 2.225 2.225 0 0 0 2.221-2.225v-.036.002-18.01a2.225 2.225 0 0 0-2.221-2.225zm-8.96 0a2.225 2.225 0 0 0-2.221 2.225v.036-.002 18.003c0 1.228.994 2.223 2.221 2.225a2.26 2.26 0 0 0 2.259-2.259V15.722a2.26 2.26 0 0 0-2.259-2.244z"/></svg>