<svg xmlns="http://www.w3.org/2000/svg" width="68" height="64" viewBox="0 0 68 64"><title>Icon-cashbox</title><path fill="#ffa53b" d="M67.114 64H1.087A1.067 1.067 0 0 1 .02 62.933v-9.6h2.133v8.533h63.9v-8.533h2.133v9.6c0 .589-.478 1.067-1.067 1.067h-.007zm.992-14.251l-7.381-19.008V13.866c0-.589-.478-1.067-1.067-1.067h-7.456v-2.133h5.323c.589 0 1.067-.478 1.067-1.067V1.066c0-.589-.478-1.067-1.067-1.067H38.357c-.589 0-1.067.478-1.067 1.067v8.533c0 .589.478 1.067 1.067 1.067h5.323v2.133H33.035v2.133h25.557v14.933H9.6V14.932h2.133v7.467c0 .589.478 1.067 1.067 1.067h17.035c.589 0 1.067-.478 1.067-1.067V5.321c0-.292-.118-.556-.309-.747L28.46 2.441a1.063 1.063 0 0 0-1.504 0L25.58 3.828l-1.376-1.387a1.063 1.063 0 0 0-1.504 0l-1.376 1.387-1.376-1.387a1.095 1.095 0 0 0-.757-.309c-.294.004-.56.121-.758.31l-1.376 1.387-1.376-1.387a1.1 1.1 0 0 0-1.505.001l.001-.001-2.133 2.133c-.19.196-.307.463-.309.757v7.467H8.546c-.589 0-1.067.478-1.067 1.067v16.875L.098 49.749A1.067 1.067 0 0 0 1.09 51.2h66.027a1.074 1.074 0 0 0 .99-1.458l.002.007zM39.423 8.533v-6.4h17.045v6.4H39.423zM50.079 12.8h-4.267v-2.133h4.267V12.8zM13.866 5.771l1.067-1.067 1.376 1.387a1.063 1.063 0 0 0 1.504 0l1.376-1.387 1.376 1.387c.196.19.463.307.757.309.291-.002.555-.12.747-.309l1.376-1.387 1.387 1.387a1.063 1.063 0 0 0 1.504 0l1.376-1.387 1.067 1.067v15.563H13.867V5.771zM2.644 49.067L9.268 32h49.664l6.624 17.067H2.644zm52.754-21.334H34.1a1.067 1.067 0 0 1-1.067-1.067v-8.533c0-.589.478-1.067 1.067-1.067h21.299c.589 0 1.067.478 1.067 1.067v8.533c0 .589-.478 1.067-1.067 1.067h-.001zM35.167 25.6h19.17v-6.4h-19.17v6.4zm-8.52-10.667H15.996V12.8h10.651v2.133zm0 4.267H15.996v-2.133h10.651V19.2zm21.3 18.133h-2.133V35.2h2.133v2.133zM45.813 41.6H43.68v-2.133h2.133V41.6zm4.261 0h-2.133v-2.133h2.133V41.6zm-2.134 4.267h-2.133v-2.133h2.133v2.133zm4.261 0h-2.133v-2.133h2.133v2.133zm-8.52-8.534h-2.133V35.2h2.133v2.133zm10.65 4.267h-2.133v-2.133h2.133V41.6zm2.133 4.267h-2.133v-2.133h2.133v2.133zm-4.26-8.534h-2.133V35.2h2.133v2.133zM41.554 41.6h-2.133v-2.133h2.133V41.6zm2.133 4.267h-2.133v-2.133h2.133v2.133zm-4.26-8.534h-2.133V35.2h2.133v2.133zM37.294 41.6h-2.133v-2.133h2.133V41.6zm-2.133-4.267h-2.133V35.2h2.133v2.133zM33.027 41.6h-2.133v-2.133h2.133V41.6zm-2.133-4.267h-2.133V35.2h2.133v2.133zM28.761 41.6h-2.133v-2.133h2.133V41.6zm-2.134-4.267h-2.133V35.2h2.133v2.133zM24.494 41.6h-2.133v-2.133h2.133V41.6zm2.133 4.267h-2.133v-2.133h2.133v2.133zm-4.26-8.534h-2.133V35.2h2.133v2.133zm0 8.534h-2.133v-2.133h2.133v2.133zM20.234 41.6h-2.133v-2.133h2.133V41.6zM18.1 45.867h-2.133v-2.133H18.1v2.133zm0-8.534h-2.133V35.2H18.1v2.133zM15.967 41.6h-2.133v-2.133h2.133V41.6zm-2.133 4.267h-2.133v-2.133h2.133v2.133zm25.56 0h-2.133v-2.133h2.133v2.133zm-4.227 0h-2.133v-2.133h2.133v2.133zm-4.267 0h-2.133v-2.133H30.9v2.133zm0-18.134H11.733V25.6H30.9v2.133zM18.121 10.667h-2.133V8.534h2.133v2.133zm4.26 0h-2.133V8.534h2.133v2.133zm4.26 0h-2.133V8.534h2.133v2.133zm12.78 12.8h-2.133v-2.133h2.133v2.133zm4.26 0h-2.133v-2.133h2.133v2.133zm4.259 0h-2.133v-2.133h2.133v2.133zm4.261 0h-2.133v-2.133h2.133v2.133zM54.334 6.4h-12.78V4.267h12.78V6.4zM34.1 58.667a2.133 2.133 0 1 1 2.133-2.133 2.133 2.133 0 0 1-2.133 2.133zM27.71 57.6H6.409v-2.133h21.3V57.6zm34.08 0H40.489v-2.133h21.3V57.6z"/></svg>