<svg xmlns="http://www.w3.org/2000/svg" width="50" height="64" viewBox="0 0 50 64"><title>Icon-Calculator</title><path fill="none" stroke="#ffa53b" stroke-width="2.157" d="M3.955 1.079h41.708a2.876 2.876 0 0 1 2.876 2.876v56.09a2.876 2.876 0 0 1-2.876 2.876H3.955a2.876 2.876 0 0 1-2.876-2.876V3.955a2.876 2.876 0 0 1 2.876-2.876z"/><path fill="none" stroke="#ffa53b" stroke-width="2.157" d="M8.72 8.809H40.9V24.27H8.72V8.809z"/><path fill="#ffa53b" d="M11.776 32.091h3.864v2.561h-3.864v-2.561zm11.055 0h3.955v2.561h-3.955v-2.561zm11.146 0h3.866v2.561h-3.866v-2.561zm-22.201 9.482h3.864v2.563h-3.864v-2.563zm11.055 0h3.955v2.563h-3.955v-2.563zm11.146 0h3.866v2.563h-3.866v-2.563zm-22.201 9.528h3.864v2.517h-3.864v-2.517zm11.055 0h3.955v2.517h-3.955v-2.517zm11.146 0h3.866v2.517h-3.866v-2.517z"/></svg>