<svg xmlns="http://www.w3.org/2000/svg" width="70" height="64" viewBox="0 0 70 64"><title>Icon-heart</title><path fill="#ff4200" d="M64.175 5.935C60.739 2.313 55.891.059 50.516.059a18.762 18.762 0 0 0-13.678 5.896l-.008.009-1.891 1.978-1.949-2.007C29.56 2.278 24.698 0 19.304 0a18.696 18.696 0 0 0-13.65 5.896l-.009.009A20.67 20.67 0 0 0 .001 20.13c0 5.526 2.16 10.547 5.682 14.265l-.009-.01 27.811 29.004c.35.374.846.608 1.396.611h.001a1.982 1.982 0 0 0 1.425-.61l.001-.001 27.84-28.916a20.742 20.742 0 0 0 5.673-14.285c0-5.52-2.148-10.538-5.654-14.264l.01.011z"/></svg>