<svg xmlns="http://www.w3.org/2000/svg" width="66" height="64" viewBox="0 0 66 64"><title>star-sm</title><path fill="#fbc91c" d="M66.32 24.32a1.17 1.17 0 0 0-.954-.799l-.006-.001-21.488-3.2-9.6-19.712a1.185 1.185 0 0 0-1.035-.609L33.198 0h.002-.01c-.462 0-.861.268-1.051.657l-.003.007-9.6 19.712-21.488 3.2a1.18 1.18 0 0 0-.958.792l-.002.008a1.21 1.21 0 0 0 .304 1.231l15.544 15.344-3.672 21.664a1.23 1.23 0 0 0 .469 1.173l.003.002a1.169 1.169 0 0 0 1.262.085l-.006.003 19.2-10.232 19.2 10.232c.158.086.346.136.545.136h.016-.001.003c.26 0 .501-.084.696-.226l-.003.002a1.216 1.216 0 0 0 .471-1.184l.001.007-3.672-21.664L66 25.605a1.221 1.221 0 0 0 .318-1.297l.003.009z"/></svg>