<svg xmlns="http://www.w3.org/2000/svg" width="61" height="64" viewBox="0 0 61 64"><title>User</title><path fill="none" stroke="#ffa53b" stroke-width="5.053" stroke-linecap="round" d="M36.85 34.169a32.747 32.747 0 0 0 9.467 4.43l.234.057c3.788.934 6.553 4.302 6.553 8.315 0 .33-.019.656-.055.977l.004-.039a28.505 28.505 0 0 1-.429 5.783l.025-.171a2.851 2.851 0 0 1-1.499 1.862l-.017.007c-6.417 3.309-14.005 5.249-22.046 5.249-.421 0-.84-.005-1.258-.016l.062.001m-9.163-26.455a32.747 32.747 0 0 1-9.467 4.43l-.234.057c-3.788.934-6.553 4.302-6.553 8.315 0 .33.019.656.055.977l-.004-.039a28.505 28.505 0 0 0 .429 5.783l-.025-.171c.211.829.765 1.5 1.499 1.862l.017.007c6.417 3.309 14.005 5.249 22.046 5.249.421 0 .84-.005 1.258-.016l-.062.001"/><path fill="none" stroke="#ffa53b" stroke-width="5.053" d="M27.79 3.368c5.845.625 10.483 5.085 11.376 10.787l.009.072a33.159 33.159 0 0 1-.006 4.546l.006-.103v4.443c-.304 6.052-5.285 10.845-11.385 10.845S16.708 29.166 16.406 23.14l-.001-.027V18.67c0-1.563-.034-2.957 0-4.443.921-5.765 5.55-10.215 11.327-10.855l.058-.005z"/></svg>